<svg xmlns="http://www.w3.org/2000/svg" width="820" height="330" viewBox="0 0 820 330" font-family="Segoe UI, Ubuntu, Helvetica, Arial, sans-serif">
<rect width="820" height="330" rx="14" fill="#1a1b26"/>
<text x="40" y="52" font-size="22" font-weight="700" fill="#c0caf5">vishvambhar Ranose</text>
<text x="40" y="74" font-size="13" fill="#565f89">GitHub activity, updated 07 Oct 2026</text>
<text x="40" y="125" font-size="34" font-weight="700" fill="#7aa2f7">189</text><text x="40" y="148" font-size="12" fill="#565f89">Contributions, last year</text><text x="230" y="125" font-size="34" font-weight="700" fill="#bb9af7">2</text><text x="230" y="148" font-size="12" fill="#565f89">Current streak, days</text><text x="420" y="125" font-size="34" font-weight="700" fill="#9ece6a">5</text><text x="420" y="148" font-size="12" fill="#565f89">Longest streak, days</text><text x="610" y="125" font-size="34" font-weight="700" fill="#e0af68">20</text><text x="610" y="148" font-size="12" fill="#565f89">Stars earned</text>
<line x1="40" y1="164" x2="780" y2="164" stroke="#24283b"/>
<rect x="50" y="178" width="14" height="14" rx="3" fill="#24283b"/><rect x="50" y="196" width="14" height="14" rx="3" fill="#24283b"/><rect x="50" y="214" width="14" height="14" rx="3" fill="#24283b"/><rect x="50" y="232" width="14" height="14" rx="3" fill="#24283b"/><rect x="50" y="250" width="14" height="14" rx="3" fill="#24283b"/><rect x="50" y="268" width="14" height="14" rx="3" fill="#24283b"/><rect x="50" y="286" width="14" height="14" rx="3" fill="#24283b"/><rect x="68" y="178" width="14" height="14" rx="3" fill="#24283b"/><rect x="68" y="196" width="14" height="14" rx="3" fill="#24283b"/><rect x="68" y="214" width="14" height="14" rx="3" fill="#24283b"/><rect x="68" y="232" width="14" height="14" rx="3" fill="#24283b"/><rect x="68" y="250" width="14" height="14" rx="3" fill="#24283b"/><rect x="68" y="268" width="14" height="14" rx="3" fill="#24283b"/><rect x="68" y="286" width="14" height="14" rx="3" fill="#24283b"/><rect x="86" y="178" width="14" height="14" rx="3" fill="#24283b"/><rect x="86" y="196" width="14" height="14" rx="3" fill="#24283b"/><rect x="86" y="214" width="14" height="14" rx="3" fill="#24283b"/><rect x="86" y="232" width="14" height="14" rx="3" fill="#24283b"/><rect x="86" y="250" width="14" height="14" rx="3" fill="#24283b"/><rect x="86" y="268" width="14" height="14" rx="3" fill="#24283b"/><rect x="86" y="286" width="14" height="14" rx="3" fill="#24283b"/><rect x="104" y="178" width="14" height="14" rx="3" fill="#24283b"/><rect x="104" y="196" width="14" height="14" rx="3" fill="#2f3d6b"/><rect x="104" y="214" width="14" height="14" rx="3" fill="#24283b"/><rect x="104" y="232" width="14" height="14" rx="3" fill="#24283b"/><rect x="104" y="250" width="14" height="14" rx="3" fill="#24283b"/><rect x="104" y="268" width="14" height="14" rx="3" fill="#24283b"/><rect x="104" y="286" width="14" height="14" rx="3" fill="#24283b"/><rect x="122" y="178" width="14" height="14" rx="3" fill="#24283b"/><rect x="122" y="196" width="14" height="14" rx="3" fill="#24283b"/><rect x="122" y="214" width="14" height="14" rx="3" fill="#24283b"/><rect x="122" y="232" width="14" height="14" rx="3" fill="#24283b"/><rect x="122" y="250" width="14" height="14" rx="3" fill="#24283b"/><rect x="122" y="268" width="14" height="14" rx="3" fill="#24283b"/><rect x="122" y="286" width="14" height="14" rx="3" fill="#24283b"/><rect x="140" y="178" width="14" height="14" rx="3" fill="#24283b"/><rect x="140" y="196" width="14" height="14" rx="3" fill="#24283b"/><rect x="140" y="214" width="14" height="14" rx="3" fill="#24283b"/><rect x="140" y="232" width="14" height="14" rx="3" fill="#24283b"/><rect x="140" y="250" width="14" height="14" rx="3" fill="#24283b"/><rect x="140" y="268" width="14" height="14" rx="3" fill="#2f3d6b"/><rect x="140" y="286" width="14" height="14" rx="3" fill="#24283b"/><rect x="158" y="178" width="14" height="14" rx="3" fill="#2f3d6b"/><rect x="158" y="196" width="14" height="14" rx="3" fill="#24283b"/><rect x="158" y="214" width="14" height="14" rx="3" fill="#24283b"/><rect x="158" y="232" width="14" height="14" rx="3" fill="#24283b"/><rect x="158" y="250" width="14" height="14" rx="3" fill="#24283b"/><rect x="158" y="268" width="14" height="14" rx="3" fill="#24283b"/><rect x="158" y="286" width="14" height="14" rx="3" fill="#24283b"/><rect x="176" y="178" width="14" height="14" rx="3" fill="#24283b"/><rect x="176" y="196" width="14" height="14" rx="3" fill="#24283b"/><rect x="176" y="214" width="14" height="14" rx="3" fill="#24283b"/><rect x="176" y="232" width="14" height="14" rx="3" fill="#24283b"/><rect x="176" y="250" width="14" height="14" rx="3" fill="#24283b"/><rect x="176" y="268" width="14" height="14" rx="3" fill="#24283b"/><rect x="176" y="286" width="14" height="14" rx="3" fill="#24283b"/><rect x="194" y="178" width="14" height="14" rx="3" fill="#24283b"/><rect x="194" y="196" width="14" height="14" rx="3" fill="#24283b"/><rect x="194" y="214" width="14" height="14" rx="3" fill="#24283b"/><rect x="194" y="232" width="14" height="14" rx="3" fill="#24283b"/><rect x="194" y="250" width="14" height="14" rx="3" fill="#24283b"/><rect x="194" y="268" width="14" height="14" rx="3" fill="#24283b"/><rect x="194" y="286" width="14" height="14" rx="3" fill="#24283b"/><rect x="212" y="178" width="14" height="14" rx="3" fill="#24283b"/><rect x="212" y="196" width="14" height="14" rx="3" fill="#24283b"/><rect x="212" y="214" width="14" height="14" rx="3" fill="#24283b"/><rect x="212" y="232" width="14" height="14" rx="3" fill="#24283b"/><rect x="212" y="250" width="14" height="14" rx="3" fill="#24283b"/><rect x="212" y="268" width="14" height="14" rx="3" fill="#24283b"/><rect x="212" y="286" width="14" height="14" rx="3" fill="#24283b"/><rect x="230" y="178" width="14" height="14" rx="3" fill="#24283b"/><rect x="230" y="196" width="14" height="14" rx="3" fill="#2f3d6b"/><rect x="230" y="214" width="14" height="14" rx="3" fill="#24283b"/><rect x="230" y="232" width="14" height="14" rx="3" fill="#24283b"/><rect x="230" y="250" width="14" height="14" rx="3" fill="#24283b"/><rect x="230" y="268" width="14" height="14" rx="3" fill="#24283b"/><rect x="230" y="286" width="14" height="14" rx="3" fill="#24283b"/><rect x="248" y="178" width="14" height="14" rx="3" fill="#24283b"/><rect x="248" y="196" width="14" height="14" rx="3" fill="#24283b"/><rect x="248" y="214" width="14" height="14" rx="3" fill="#24283b"/><rect x="248" y="232" width="14" height="14" rx="3" fill="#24283b"/><rect x="248" y="250" width="14" height="14" rx="3" fill="#24283b"/><rect x="248" y="268" width="14" height="14" rx="3" fill="#24283b"/><rect x="248" y="286" width="14" height="14" rx="3" fill="#24283b"/><rect x="266" y="178" width="14" height="14" rx="3" fill="#24283b"/><rect x="266" y="196" width="14" height="14" rx="3" fill="#24283b"/><rect x="266" y="214" width="14" height="14" rx="3" fill="#24283b"/><rect x="266" y="232" width="14" height="14" rx="3" fill="#24283b"/><rect x="266" y="250" width="14" height="14" rx="3" fill="#24283b"/><rect x="266" y="268" width="14" height="14" rx="3" fill="#24283b"/><rect x="266" y="286" width="14" height="14" rx="3" fill="#24283b"/><rect x="284" y="178" width="14" height="14" rx="3" fill="#24283b"/><rect x="284" y="196" width="14" height="14" rx="3" fill="#24283b"/><rect x="284" y="214" width="14" height="14" rx="3" fill="#24283b"/><rect x="284" y="232" width="14" height="14" rx="3" fill="#2f3d6b"/><rect x="284" y="250" width="14" height="14" rx="3" fill="#24283b"/><rect x="284" y="268" width="14" height="14" rx="3" fill="#2f3d6b"/><rect x="284" y="286" width="14" height="14" rx="3" fill="#24283b"/><rect x="302" y="178" width="14" height="14" rx="3" fill="#24283b"/><rect x="302" y="196" width="14" height="14" rx="3" fill="#24283b"/><rect x="302" y="214" width="14" height="14" rx="3" fill="#24283b"/><rect x="302" y="232" width="14" height="14" rx="3" fill="#24283b"/><rect x="302" y="250" width="14" height="14" rx="3" fill="#24283b"/><rect x="302" y="268" width="14" height="14" rx="3" fill="#24283b"/><rect x="302" y="286" width="14" height="14" rx="3" fill="#24283b"/><rect x="320" y="178" width="14" height="14" rx="3" fill="#24283b"/><rect x="320" y="196" width="14" height="14" rx="3" fill="#24283b"/><rect x="320" y="214" width="14" height="14" rx="3" fill="#24283b"/><rect x="320" y="232" width="14" height="14" rx="3" fill="#3d59a1"/><rect x="320" y="250" width="14" height="14" rx="3" fill="#24283b"/><rect x="320" y="268" width="14" height="14" rx="3" fill="#24283b"/><rect x="320" y="286" width="14" height="14" rx="3" fill="#24283b"/><rect x="338" y="178" width="14" height="14" rx="3" fill="#24283b"/><rect x="338" y="196" width="14" height="14" rx="3" fill="#24283b"/><rect x="338" y="214" width="14" height="14" rx="3" fill="#24283b"/><rect x="338" y="232" width="14" height="14" rx="3" fill="#24283b"/><rect x="338" y="250" width="14" height="14" rx="3" fill="#24283b"/><rect x="338" y="268" width="14" height="14" rx="3" fill="#24283b"/><rect x="338" y="286" width="14" height="14" rx="3" fill="#2f3d6b"/><rect x="356" y="178" width="14" height="14" rx="3" fill="#24283b"/><rect x="356" y="196" width="14" height="14" rx="3" fill="#24283b"/><rect x="356" y="214" width="14" height="14" rx="3" fill="#24283b"/><rect x="356" y="232" width="14" height="14" rx="3" fill="#24283b"/><rect x="356" y="250" width="14" height="14" rx="3" fill="#24283b"/><rect x="356" y="268" width="14" height="14" rx="3" fill="#24283b"/><rect x="356" y="286" width="14" height="14" rx="3" fill="#24283b"/><rect x="374" y="178" width="14" height="14" rx="3" fill="#24283b"/><rect x="374" y="196" width="14" height="14" rx="3" fill="#24283b"/><rect x="374" y="214" width="14" height="14" rx="3" fill="#24283b"/><rect x="374" y="232" width="14" height="14" rx="3" fill="#24283b"/><rect x="374" y="250" width="14" height="14" rx="3" fill="#24283b"/><rect x="374" y="268" width="14" height="14" rx="3" fill="#24283b"/><rect x="374" y="286" width="14" height="14" rx="3" fill="#24283b"/><rect x="392" y="178" width="14" height="14" rx="3" fill="#24283b"/><rect x="392" y="196" width="14" height="14" rx="3" fill="#24283b"/><rect x="392" y="214" width="14" height="14" rx="3" fill="#3d59a1"/><rect x="392" y="232" width="14" height="14" rx="3" fill="#24283b"/><rect x="392" y="250" width="14" height="14" rx="3" fill="#24283b"/><rect x="392" y="268" width="14" height="14" rx="3" fill="#24283b"/><rect x="392" y="286" width="14" height="14" rx="3" fill="#24283b"/><rect x="410" y="178" width="14" height="14" rx="3" fill="#24283b"/><rect x="410" y="196" width="14" height="14" rx="3" fill="#24283b"/><rect x="410" y="214" width="14" height="14" rx="3" fill="#24283b"/><rect x="410" y="232" width="14" height="14" rx="3" fill="#24283b"/><rect x="410" y="250" width="14" height="14" rx="3" fill="#24283b"/><rect x="410" y="268" width="14" height="14" rx="3" fill="#24283b"/><rect x="410" y="286" width="14" height="14" rx="3" fill="#24283b"/><rect x="428" y="178" width="14" height="14" rx="3" fill="#24283b"/><rect x="428" y="196" width="14" height="14" rx="3" fill="#24283b"/><rect x="428" y="214" width="14" height="14" rx="3" fill="#24283b"/><rect x="428" y="232" width="14" height="14" rx="3" fill="#24283b"/><rect x="428" y="250" width="14" height="14" rx="3" fill="#24283b"/><rect x="428" y="268" width="14" height="14" rx="3" fill="#24283b"/><rect x="428" y="286" width="14" height="14" rx="3" fill="#24283b"/><rect x="446" y="178" width="14" height="14" rx="3" fill="#2f3d6b"/><rect x="446" y="196" width="14" height="14" rx="3" fill="#24283b"/><rect x="446" y="214" width="14" height="14" rx="3" fill="#24283b"/><rect x="446" y="232" width="14" height="14" rx="3" fill="#24283b"/><rect x="446" y="250" width="14" height="14" rx="3" fill="#24283b"/><rect x="446" y="268" width="14" height="14" rx="3" fill="#24283b"/><rect x="446" y="286" width="14" height="14" rx="3" fill="#24283b"/><rect x="464" y="178" width="14" height="14" rx="3" fill="#2f3d6b"/><rect x="464" y="196" width="14" height="14" rx="3" fill="#2f3d6b"/><rect x="464" y="214" width="14" height="14" rx="3" fill="#24283b"/><rect x="464" y="232" width="14" height="14" rx="3" fill="#24283b"/><rect x="464" y="250" width="14" height="14" rx="3" fill="#24283b"/><rect x="464" y="268" width="14" height="14" rx="3" fill="#24283b"/><rect x="464" y="286" width="14" height="14" rx="3" fill="#24283b"/><rect x="482" y="178" width="14" height="14" rx="3" fill="#24283b"/><rect x="482" y="196" width="14" height="14" rx="3" fill="#24283b"/><rect x="482" y="214" width="14" height="14" rx="3" fill="#24283b"/><rect x="482" y="232" width="14" height="14" rx="3" fill="#24283b"/><rect x="482" y="250" width="14" height="14" rx="3" fill="#24283b"/><rect x="482" y="268" width="14" height="14" rx="3" fill="#24283b"/><rect x="482" y="286" width="14" height="14" rx="3" fill="#2f3d6b"/><rect x="500" y="178" width="14" height="14" rx="3" fill="#24283b"/><rect x="500" y="196" width="14" height="14" rx="3" fill="#2f3d6b"/><rect x="500" y="214" width="14" height="14" rx="3" fill="#2f3d6b"/><rect x="500" y="232" width="14" height="14" rx="3" fill="#24283b"/><rect x="500" y="250" width="14" height="14" rx="3" fill="#2f3d6b"/><rect x="500" y="268" width="14" height="14" rx="3" fill="#24283b"/><rect x="500" y="286" width="14" height="14" rx="3" fill="#24283b"/><rect x="518" y="178" width="14" height="14" rx="3" fill="#24283b"/><rect x="518" y="196" width="14" height="14" rx="3" fill="#24283b"/><rect x="518" y="214" width="14" height="14" rx="3" fill="#24283b"/><rect x="518" y="232" width="14" height="14" rx="3" fill="#24283b"/><rect x="518" y="250" width="14" height="14" rx="3" fill="#24283b"/><rect x="518" y="268" width="14" height="14" rx="3" fill="#24283b"/><rect x="518" y="286" width="14" height="14" rx="3" fill="#24283b"/><rect x="536" y="178" width="14" height="14" rx="3" fill="#24283b"/><rect x="536" y="196" width="14" height="14" rx="3" fill="#24283b"/><rect x="536" y="214" width="14" height="14" rx="3" fill="#24283b"/><rect x="536" y="232" width="14" height="14" rx="3" fill="#24283b"/><rect x="536" y="250" width="14" height="14" rx="3" fill="#24283b"/><rect x="536" y="268" width="14" height="14" rx="3" fill="#24283b"/><rect x="536" y="286" width="14" height="14" rx="3" fill="#24283b"/><rect x="554" y="178" width="14" height="14" rx="3" fill="#24283b"/><rect x="554" y="196" width="14" height="14" rx="3" fill="#24283b"/><rect x="554" y="214" width="14" height="14" rx="3" fill="#24283b"/><rect x="554" y="232" width="14" height="14" rx="3" fill="#24283b"/><rect x="554" y="250" width="14" height="14" rx="3" fill="#24283b"/><rect x="554" y="268" width="14" height="14" rx="3" fill="#24283b"/><rect x="554" y="286" width="14" height="14" rx="3" fill="#24283b"/><rect x="572" y="178" width="14" height="14" rx="3" fill="#24283b"/><rect x="572" y="196" width="14" height="14" rx="3" fill="#24283b"/><rect x="572" y="214" width="14" height="14" rx="3" fill="#24283b"/><rect x="572" y="232" width="14" height="14" rx="3" fill="#24283b"/><rect x="572" y="250" width="14" height="14" rx="3" fill="#24283b"/><rect x="572" y="268" width="14" height="14" rx="3" fill="#2f3d6b"/><rect x="572" y="286" width="14" height="14" rx="3" fill="#24283b"/><rect x="590" y="178" width="14" height="14" rx="3" fill="#24283b"/><rect x="590" y="196" width="14" height="14" rx="3" fill="#24283b"/><rect x="590" y="214" width="14" height="14" rx="3" fill="#2f3d6b"/><rect x="590" y="232" width="14" height="14" rx="3" fill="#24283b"/><rect x="590" y="250" width="14" height="14" rx="3" fill="#24283b"/><rect x="590" y="268" width="14" height="14" rx="3" fill="#24283b"/><rect x="590" y="286" width="14" height="14" rx="3" fill="#24283b"/><rect x="608" y="178" width="14" height="14" rx="3" fill="#2f3d6b"/><rect x="608" y="196" width="14" height="14" rx="3" fill="#24283b"/><rect x="608" y="214" width="14" height="14" rx="3" fill="#2f3d6b"/><rect x="608" y="232" width="14" height="14" rx="3" fill="#3d59a1"/><rect x="608" y="250" width="14" height="14" rx="3" fill="#2f3d6b"/><rect x="608" y="268" width="14" height="14" rx="3" fill="#24283b"/><rect x="608" y="286" width="14" height="14" rx="3" fill="#24283b"/><rect x="626" y="178" width="14" height="14" rx="3" fill="#2f3d6b"/><rect x="626" y="196" width="14" height="14" rx="3" fill="#24283b"/><rect x="626" y="214" width="14" height="14" rx="3" fill="#24283b"/><rect x="626" y="232" width="14" height="14" rx="3" fill="#2f3d6b"/><rect x="626" y="250" width="14" height="14" rx="3" fill="#24283b"/><rect x="626" y="268" width="14" height="14" rx="3" fill="#24283b"/><rect x="626" y="286" width="14" height="14" rx="3" fill="#24283b"/><rect x="644" y="178" width="14" height="14" rx="3" fill="#24283b"/><rect x="644" y="196" width="14" height="14" rx="3" fill="#24283b"/><rect x="644" y="214" width="14" height="14" rx="3" fill="#24283b"/><rect x="644" y="232" width="14" height="14" rx="3" fill="#24283b"/><rect x="644" y="250" width="14" height="14" rx="3" fill="#24283b"/><rect x="644" y="268" width="14" height="14" rx="3" fill="#24283b"/><rect x="644" y="286" width="14" height="14" rx="3" fill="#24283b"/><rect x="662" y="178" width="14" height="14" rx="3" fill="#24283b"/><rect x="662" y="196" width="14" height="14" rx="3" fill="#24283b"/><rect x="662" y="214" width="14" height="14" rx="3" fill="#24283b"/><rect x="662" y="232" width="14" height="14" rx="3" fill="#24283b"/><rect x="662" y="250" width="14" height="14" rx="3" fill="#2f3d6b"/><rect x="662" y="268" width="14" height="14" rx="3" fill="#2f3d6b"/><rect x="662" y="286" width="14" height="14" rx="3" fill="#3d59a1"/><rect x="680" y="178" width="14" height="14" rx="3" fill="#2f3d6b"/><rect x="680" y="196" width="14" height="14" rx="3" fill="#2f3d6b"/><rect x="680" y="214" width="14" height="14" rx="3" fill="#24283b"/><rect x="680" y="232" width="14" height="14" rx="3" fill="#2f3d6b"/><rect x="680" y="250" width="14" height="14" rx="3" fill="#2f3d6b"/><rect x="680" y="268" width="14" height="14" rx="3" fill="#2f3d6b"/><rect x="680" y="286" width="14" height="14" rx="3" fill="#3d59a1"/><rect x="698" y="178" width="14" height="14" rx="3" fill="#2f3d6b"/><rect x="698" y="196" width="14" height="14" rx="3" fill="#24283b"/><rect x="698" y="214" width="14" height="14" rx="3" fill="#2f3d6b"/><rect x="698" y="232" width="14" height="14" rx="3" fill="#2f3d6b"/><rect x="698" y="250" width="14" height="14" rx="3" fill="#b4c8ff"/><rect x="698" y="268" width="14" height="14" rx="3" fill="#7aa2f7"/><rect x="698" y="286" width="14" height="14" rx="3" fill="#2f3d6b"/><rect x="716" y="178" width="14" height="14" rx="3" fill="#24283b"/><rect x="716" y="196" width="14" height="14" rx="3" fill="#2f3d6b"/><rect x="716" y="214" width="14" height="14" rx="3" fill="#2f3d6b"/><rect x="716" y="232" width="14" height="14" rx="3" fill="#2f3d6b"/><rect x="716" y="250" width="14" height="14" rx="3" fill="#2f3d6b"/><rect x="716" y="268" width="14" height="14" rx="3" fill="#2f3d6b"/><rect x="716" y="286" width="14" height="14" rx="3" fill="#24283b"/><rect x="734" y="178" width="14" height="14" rx="3" fill="#24283b"/><rect x="734" y="196" width="14" height="14" rx="3" fill="#24283b"/><rect x="734" y="214" width="14" height="14" rx="3" fill="#2f3d6b"/><rect x="734" y="232" width="14" height="14" rx="3" fill="#2f3d6b"/><rect x="734" y="250" width="14" height="14" rx="3" fill="#24283b"/><rect x="734" y="268" width="14" height="14" rx="3" fill="#2f3d6b"/><rect x="734" y="286" width="14" height="14" rx="3" fill="#2f3d6b"/><rect x="752" y="178" width="14" height="14" rx="3" fill="#2f3d6b"/><rect x="752" y="196" width="14" height="14" rx="3" fill="#24283b"/><rect x="752" y="214" width="14" height="14" rx="3" fill="#7aa2f7"/><rect x="752" y="232" width="14" height="14" rx="3" fill="#3d59a1"/>
</svg>